<?xml version="1.0" encoding="utf-8"?>
<!-- Generator: Adobe Illustrator 19.0.0, SVG Export Plug-In . SVG Version: 6.00 Build 0)  -->
<svg version="1.1" id="Layer_1" xmlns="http://www.w3.org/2000/svg" xmlns:xlink="http://www.w3.org/1999/xlink" x="0px" y="0px"
	 viewBox="0 0 18 18" style="enable-background:new 0 0 18 18;" xml:space="preserve">
<style type="text/css">
	.st0{fill:#D85B4A;}
	.st1{fill:#FFFFFF;}
	.st2{fill:#434B60;}
</style>
<circle id="XMLID_3_" class="st0" cx="9.3" cy="9" r="6.3"/>
<path id="XMLID_2_" class="st1" d="M7.9,7H6.1C5.8,7,5.6,7.2,5.6,7.5v2.8c0,0.3,0.2,0.5,0.5,0.5h1.8c0.1,0,0.2,0,0.2,0.1l2.9,2.7
	c0.3,0.2,0.7,0,0.7-0.4V4.7c0-0.4-0.4-0.6-0.7-0.4L8.1,7C8.1,7,8,7,7.9,7z"/>
<path id="XMLID_1_" class="st2" d="M14.1,4.9c-0.1-0.1-0.2-0.2-0.3-0.3c-0.1-0.1-0.2-0.2-0.3-0.3l-8.9,8.9c0.1,0.1,0.2,0.2,0.3,0.3
	s0.2,0.2,0.3,0.3L14.1,4.9z"/>
</svg>
